<?xml version="1.0" encoding="UTF-8" standalone="no"?>
<!-- Created with Inkscape (http://www.inkscape.org/) -->

<svg
   width="504.01389"
   height="83.52594"
   viewBox="0 0 133.35367 22.09957"
   version="1.1"
   id="svg5"
   xml:space="preserve"
   xmlns="http://www.w3.org/2000/svg"
   xmlns:svg="http://www.w3.org/2000/svg"><defs
     id="defs2"><clipPath
       clipPathUnits="userSpaceOnUse"
       id="clipPath16744"><path
         style="mix-blend-mode:normal;fill:#4a90e2;fill-opacity:1;stroke:none;stroke-width:0.264999;stroke-dasharray:none;stroke-opacity:1"
         d="M 47.64722,44.238643 A 25.416916,25.416916 0 0 0 22.230684,69.655698 25.416916,25.416916 0 0 0 22.382613,72.29171 32.67815,32.67815 0 0 1 47.56454,84.689405 32.67815,32.67815 0 0 1 72.90821,72.295845 25.416916,25.416916 0 0 0 73.064275,69.655698 25.416916,25.416916 0 0 0 47.64722,44.238643 Z"
         id="path16746" /></clipPath><clipPath
       clipPathUnits="userSpaceOnUse"
       id="clipPath16749"><path
         style="mix-blend-mode:normal;fill:#4a90e2;fill-opacity:1;stroke:none;stroke-width:0.264999;stroke-dasharray:none;stroke-opacity:1"
         d="M 47.64722,44.238643 A 25.416916,25.416916 0 0 0 22.230684,69.655698 25.416916,25.416916 0 0 0 22.382613,72.29171 32.67815,32.67815 0 0 1 47.56454,84.689405 32.67815,32.67815 0 0 1 72.90821,72.295845 25.416916,25.416916 0 0 0 73.064275,69.655698 25.416916,25.416916 0 0 0 47.64722,44.238643 Z"
         id="path16751" /></clipPath><clipPath
       clipPathUnits="userSpaceOnUse"
       id="clipPath16760"><path
         style="mix-blend-mode:normal;fill:#4a90e2;fill-opacity:1;stroke:none;stroke-width:0.264999;stroke-dasharray:none;stroke-opacity:1"
         d="m -47.64722,44.238643 a 25.416916,25.416916 0 0 1 25.416536,25.417055 25.416916,25.416916 0 0 1 -0.151929,2.636012 32.67815,32.67815 0 0 0 -25.181927,12.397695 32.67815,32.67815 0 0 0 -25.34367,-12.39356 25.416916,25.416916 0 0 1 -0.156065,-2.640147 25.416916,25.416916 0 0 1 25.417055,-25.417055 z"
         id="path16762" /></clipPath></defs><g
     id="layer2"
     transform="translate(22.68323,-46.268935)"><g
       id="g376"
       transform="matrix(0.32687854,0,0,0.32687854,-29.483701,43.207735)"><path
         style="mix-blend-mode:normal;fill:#4a90e2;fill-opacity:1;stroke:none;stroke-width:0.265;stroke-dasharray:none;stroke-opacity:1"
         d="M 57.872899,9.364937 A 25.416916,25.416916 0 0 0 32.456362,34.781991 25.416916,25.416916 0 0 0 32.608291,37.418005 32.67815,32.67815 0 0 1 57.790217,49.815698 32.67815,32.67815 0 0 1 83.133889,37.42214 25.416916,25.416916 0 0 0 83.289952,34.781991 25.416916,25.416916 0 0 0 57.872899,9.364937 Z"
         id="path467" /><path
         style="mix-blend-mode:normal;fill:none;fill-opacity:1;stroke:#66bb6a;stroke-width:3.309;stroke-linecap:round;stroke-dasharray:none;stroke-opacity:1;paint-order:normal"
         id="path3775"
         d="M 50.475208,54.27531 A 56.433846,13.080044 0 0 1 25.441874,53.24779"
         clip-path="url(#clipPath16749)"
         transform="translate(10.225678,-34.873706)" /><path
         style="mix-blend-mode:normal;fill:none;fill-opacity:1;stroke:#ffffff;stroke-width:3.309;stroke-linecap:round;stroke-dasharray:none;stroke-opacity:1;paint-order:fill markers stroke"
         id="path3783"
         d="M 47.276975,70.1678 A 56.433846,13.080044 0 0 1 22.343109,68.79105"
         clip-path="url(#clipPath16744)"
         transform="translate(10.225678,-34.873706)" /><path
         style="mix-blend-mode:normal;fill:none;fill-opacity:1;stroke:#ffd740;stroke-width:3.309;stroke-linecap:round;stroke-dasharray:none;stroke-opacity:1;paint-order:fill markers stroke"
         id="path3785"
         d="M -42.270869,62.168019 A 56.433846,13.080044 0 0 1 -71.994675,60.964908"
         transform="matrix(-1,0,0,1,10.225678,-34.873706)"
         mask="none"
         clip-path="url(#clipPath16760)" /><path
         style="fill:#66bb6a;fill-opacity:1;stroke:none;stroke-width:0.2;stroke-linecap:round;stroke-dasharray:none;stroke-opacity:1;paint-order:fill markers stroke"
         d="m 57.798771,68.952694 c 0,0 -7.39869,-5.593633 -16.972729,-7.781082 -9.574039,-2.187449 -18.334142,-0.898261 -18.601249,-1.414743 -0.286418,-0.553822 4.182015,-17.039235 4.715809,-17.448494 0.830296,-0.636586 5.583952,-2.147947 15.483574,2.017319 10.371204,4.296261 15.374645,12.157342 15.374645,12.157342 z"
         id="path4513" /><path
         style="fill:#ffd740;fill-opacity:1;stroke:none;stroke-width:0.2;stroke-linecap:round;stroke-dasharray:none;stroke-opacity:1;paint-order:fill markers stroke"
         d="m 57.797988,68.952694 c 0,0 7.37218,-5.593633 16.946219,-7.781082 9.574039,-2.187449 18.334142,-0.898261 18.601249,-1.414743 C 93.631874,59.203047 89.163441,42.717634 88.629647,42.308375 87.799351,41.671789 83.045695,40.160428 73.146073,44.325694 62.774869,48.621955 57.797988,56.482002 57.797988,56.482002 Z"
         id="path4611" /><path
         style="fill:none;fill-opacity:1;stroke:#66bb6a;stroke-width:3;stroke-linecap:round;stroke-dasharray:none;stroke-opacity:1;paint-order:fill markers stroke"
         d="m 22.304271,65.534224 c 0,0 10.166824,-0.50638 18.154939,1.46932 7.988115,1.9757 17.341434,8.16014 17.341434,8.16014 0,0 8.992131,-6.18444 16.980246,-8.16014 7.988115,-1.9757 18.250024,-1.46932 18.250024,-1.46932"
         id="path4613" /></g><text
       xml:space="preserve"
       style="font-style:normal;font-variant:normal;font-weight:bold;font-stretch:normal;font-size:19.7556px;font-family:'Bauhaus 93';-inkscape-font-specification:'Bauhaus 93 Bold';letter-spacing:-0.264583px;fill:#4a90e2;fill-opacity:1;stroke:#ffffff;stroke-width:3;stroke-linecap:round;stroke-dasharray:none;stroke-opacity:1;paint-order:normal"
       x="5.2681918"
       y="62.28656"
       id="text14233"><tspan
         id="tspan14231"
         style="font-style:normal;font-variant:normal;font-weight:normal;font-stretch:normal;font-size:19.7556px;font-family:'Bauhaus 93';-inkscape-font-specification:'Bauhaus 93, ';fill:#66bb6a;fill-opacity:1;stroke:none;stroke-width:3"
         x="5.2681918"
         y="62.28656">Blend<tspan
   style="font-style:normal;font-variant:normal;font-weight:normal;font-stretch:normal;font-size:19.7556px;font-family:'Bauhaus 93';-inkscape-font-specification:'Bauhaus 93, ';word-spacing:0px;fill:#4a90e2;fill-opacity:1"
   id="tspan15941">Sphere</tspan></tspan></text></g></svg>
